<svg width="207" height="272" viewBox="0 0 207 272" fill="none" xmlns="http://www.w3.org/2000/svg">
<g opacity="0.6" filter="url(#filter0_f_513_2205)">
<path fill-rule="evenodd" clip-rule="evenodd" d="M66.7539 247C15.1799 224.49 11.3889 169.779 55.3518 110.614C61.5818 117.502 61.8169 130.454 75.7904 130.94C78.2883 111.764 63.3955 97.8025 70.5596 74.3858C77.7237 50.9691 87.6628 41.0784 104.428 25C104.164 53.0561 117.27 71.7749 131.229 90.1839C146.216 109.95 162.746 128.787 173.531 151.37C191.81 189.634 180.129 222.543 142.073 240.451C147.994 217.026 150.903 194.369 130.715 174.691C127.982 182.79 126.512 189.9 123.25 196.065C119.93 202.305 118.387 213.501 106.999 208.161C97.7866 203.854 95.2005 195.652 98.918 185.991C103.473 174.101 112.465 163.791 112.921 146.621C80.1397 174.042 43.5823 195.505 66.7539 247Z" fill="#F09A28"/>
</g>
<path fill-rule="evenodd" clip-rule="evenodd" d="M66.7539 241C15.1799 218.49 11.3889 163.779 55.3518 104.614C61.5818 111.502 61.8169 124.454 75.7904 124.94C78.2883 105.764 63.3955 91.8025 70.5596 68.3858C77.7237 44.9691 87.6628 35.0784 104.428 19C104.164 47.0561 117.27 65.7749 131.229 84.1839C146.216 103.95 162.746 122.787 173.531 145.37C191.81 183.634 180.129 216.543 142.073 234.451C147.994 211.026 150.903 188.369 130.715 168.691C127.982 176.79 126.512 183.9 123.25 190.065C119.93 196.305 118.387 207.501 106.999 202.161C97.7866 197.854 95.2005 189.652 98.918 179.991C103.473 168.101 112.465 157.791 112.921 140.621C80.1397 168.042 43.5823 189.505 66.7539 241Z" fill="#F09A28"/>
<defs>
<filter id="filter0_f_513_2205" x="0" y="0" width="207" height="272" filterUnits="userSpaceOnUse" color-interpolation-filters="sRGB">
<feFlood flood-opacity="0" result="BackgroundImageFix"/>
<feBlend mode="normal" in="SourceGraphic" in2="BackgroundImageFix" result="shape"/>
<feGaussianBlur stdDeviation="12.5" result="effect1_foregroundBlur_513_2205"/>
</filter>
</defs>
</svg>
